<svg width="24" height="24" viewBox="0 0 24 24" fill="none" xmlns="http://www.w3.org/2000/svg">
<path d="M20.8921 10.3033C21.0185 9.4554 20.977 8.58735 20.7677 7.7527C20.4913 6.6501 19.9219 5.6059 19.0597 4.74365C18.1974 3.88141 17.1532 3.31205 16.0506 3.03558C15.216 2.82629 14.3479 2.78484 13.5 2.91123" stroke="black" stroke-width="2" stroke-linecap="round" stroke-linejoin="round"/>
<path d="M17.0953 9.90173C17.2307 8.99343 16.9488 8.03493 16.2496 7.33573C15.5503 6.63653 14.5918 6.35458 13.6836 6.48998" stroke="black" stroke-width="2" stroke-linecap="round" stroke-linejoin="round"/>
<path d="M7.1893 4.39746C7.5526 4.39746 7.8873 4.59447 8.0636 4.91209L9.28686 7.1155C9.44701 7.404 9.4545 7.75295 9.30695 8.0481L8.12855 10.4049C8.12855 10.4049 8.47006 12.1606 9.89926 13.5898C11.3285 15.019 13.0783 15.3546 13.0783 15.3546L15.4348 14.1764C15.7301 14.0287 16.0793 14.0364 16.3679 14.1968L18.5776 15.4253C18.8949 15.6017 19.0917 15.9363 19.0917 16.2993V18.8361C19.0917 20.1279 17.8917 21.061 16.6677 20.6479C14.1537 19.7997 10.2514 18.1846 7.77796 15.7111C5.30451 13.2377 3.68941 9.3354 2.84114 6.82145C2.42813 5.5974 3.36117 4.39746 4.653 4.39746H7.1893Z" stroke="black" stroke-width="2" stroke-linejoin="round"/>
</svg>
