<svg width="34" height="34" viewBox="0 0 34 34" fill="none" xmlns="http://www.w3.org/2000/svg">
<path d="M24.0833 4.25H9.91667C6.78705 4.25 4.25 6.78705 4.25 9.91667V24.0833C4.25 27.213 6.78705 29.75 9.91667 29.75H24.0833C27.213 29.75 29.75 27.213 29.75 24.0833V9.91667C29.75 6.78705 27.213 4.25 24.0833 4.25Z" stroke="black" stroke-width="2" stroke-linejoin="round"/>
<path d="M17.0026 22.6663C20.1322 22.6663 22.6693 20.1293 22.6693 16.9997C22.6693 13.87 20.1322 11.333 17.0026 11.333C13.873 11.333 11.3359 13.87 11.3359 16.9997C11.3359 20.1293 13.873 22.6663 17.0026 22.6663Z" stroke="black" stroke-width="2" stroke-linejoin="round"/>
<path d="M24.7917 10.6253C25.5741 10.6253 26.2083 9.99108 26.2083 9.20866C26.2083 8.42623 25.5741 7.79199 24.7917 7.79199C24.0092 7.79199 23.375 8.42623 23.375 9.20866C23.375 9.99108 24.0092 10.6253 24.7917 10.6253Z" fill="black"/>
</svg>
