<svg width="20" height="20" viewBox="0 0 20 20" fill="none" xmlns="http://www.w3.org/2000/svg">
<path d="M1.80078 2.49219H3.2162L3.8228 4.98495M3.8228 4.98495L5.84483 13.2941H16.3593L18.3814 4.98495H3.8228Z" stroke="black" stroke-width="1.5" stroke-linecap="round" stroke-linejoin="round"/>
<path d="M5.84603 17.4498C6.51607 17.4498 7.05924 16.8918 7.05924 16.2034C7.05924 15.5151 6.51607 14.957 5.84603 14.957C5.17599 14.957 4.63281 15.5151 4.63281 16.2034C4.63281 16.8918 5.17599 17.4498 5.84603 17.4498Z" stroke="black" stroke-width="1.5" stroke-linecap="round" stroke-linejoin="round"/>
<path d="M16.3617 17.4498C17.0317 17.4498 17.5749 16.8918 17.5749 16.2034C17.5749 15.5151 17.0317 14.957 16.3617 14.957C15.6916 14.957 15.1484 15.5151 15.1484 16.2034C15.1484 16.8918 15.6916 17.4498 16.3617 17.4498Z" stroke="black" stroke-width="1.5" stroke-linecap="round" stroke-linejoin="round"/>
</svg>
